<?xml version="1.0" encoding="UTF-8" standalone="no"?>
<!-- Created with Inkscape (http://www.inkscape.org/) -->

<svg
   xmlns:dc="http://purl.org/dc/elements/1.1/"
   xmlns:cc="http://creativecommons.org/ns#"
   xmlns:rdf="http://www.w3.org/1999/02/22-rdf-syntax-ns#"
   xmlns:svg="http://www.w3.org/2000/svg"
   xmlns="http://www.w3.org/2000/svg"
   xmlns:sodipodi="http://sodipodi.sourceforge.net/DTD/sodipodi-0.dtd"
   xmlns:inkscape="http://www.inkscape.org/namespaces/inkscape"
   width="1014.5314"
   height="488.70236"
   id="svg2"
   version="1.1"
   inkscape:version="0.48.4 r9939"
   sodipodi:docname="dps-flow_strat2-v2.svg">
  <sodipodi:namedview
     id="base"
     pagecolor="#ffffff"
     bordercolor="#666666"
     borderopacity="1.0"
     inkscape:pageopacity="0.0"
     inkscape:pageshadow="2"
     inkscape:zoom="0.7"
     inkscape:cx="473.92972"
     inkscape:cy="297.54351"
     inkscape:document-units="px"
     inkscape:current-layer="layer1"
     showgrid="false"
     inkscape:window-width="1280"
     inkscape:window-height="773"
     inkscape:window-x="0"
     inkscape:window-y="27"
     inkscape:window-maximized="1"
     showguides="true"
     inkscape:guide-bbox="true"
     fit-margin-left="20"
     fit-margin-top="20"
     fit-margin-bottom="20"
     fit-margin-right="20" />
  <defs
     id="defs4">
    <marker
       inkscape:stockid="Arrow1Lend"
       orient="auto"
       refY="0"
       refX="0"
       id="Arrow1Lend"
       style="overflow:visible">
      <path
         id="path3802"
         d="M 0,0 5,-5 -12.5,0 5,5 0,0 z"
         style="fill-rule:evenodd;stroke:#000000;stroke-width:1pt"
         transform="matrix(-0.8,0,0,-0.8,-10,0)"
         inkscape:connector-curvature="0" />
    </marker>
    <marker
       inkscape:stockid="Arrow1Lend"
       orient="auto"
       refY="0"
       refX="0"
       id="Arrow1Lend-3"
       style="overflow:visible">
      <path
         id="path3802-5"
         d="M 0,0 5,-5 -12.5,0 5,5 0,0 z"
         style="fill-rule:evenodd;stroke:#000000;stroke-width:1pt"
         transform="matrix(-0.8,0,0,-0.8,-10,0)"
         inkscape:connector-curvature="0" />
    </marker>
  </defs>
  <metadata
     id="metadata7">
    <rdf:RDF>
      <cc:Work
         rdf:about="">
        <dc:format>image/svg+xml</dc:format>
        <dc:type
           rdf:resource="http://purl.org/dc/dcmitype/StillImage" />
        <dc:title />
      </cc:Work>
    </rdf:RDF>
  </metadata>
  <g
     id="layer1"
     inkscape:groupmode="layer"
     inkscape:label="Calque 1"
     transform="translate(424.63862,-219.76638)">
    <g
       id="g4239"
       transform="matrix(2.232183,0,0,2.232183,-385.24653,-682.63099)">
      <path
         inkscape:connector-curvature="0"
         id="path3793"
         d="m -8.6847306,497.81086 434.7546006,0"
         style="fill:none;stroke:#000000;stroke-width:0.99991804;stroke-linecap:butt;stroke-linejoin:miter;stroke-miterlimit:4;stroke-opacity:1;stroke-dasharray:none;marker-end:url(#Arrow1Lend)" />
      <g
         id="g3883">
        <path
           id="path2990"
           inkscape:label="Triangle"
           style="fill:#ffffff;fill-opacity:1;stroke:#000000;stroke-width:0.99991804;stroke-miterlimit:4;stroke-dasharray:none"
           d="m 70.664748,447.47789 0,100.66596 -38.276101,-50.33298 38.276101,-50.33299 z"
           inkscape:connector-curvature="0" />
        <g
           id="g4297"
           transform="translate(0,1.1519725)">
          <rect
             style="fill:#ffffff;fill-opacity:1;stroke:#000000;stroke-width:0.99991804;stroke-linecap:butt;stroke-linejoin:miter;stroke-miterlimit:4;stroke-opacity:1;stroke-dasharray:none;stroke-dashoffset:0"
             id="rect3021"
             width="109.09647"
             height="49.497475"
             x="143.90451"
             y="478.18204"
             ry="11.636716" />
          <text
             sodipodi:linespacing="125%"
             id="text4284"
             y="508.27518"
             x="178.7621"
             style="font-size:14.335742px;font-style:normal;font-variant:normal;font-weight:normal;font-stretch:normal;text-align:start;line-height:125%;letter-spacing:0px;word-spacing:0px;writing-mode:lr-tb;text-anchor:start;fill:#000000;fill-opacity:1;stroke:none;font-family:Sans;-inkscape-font-specification:Sans"
             xml:space="preserve"><tspan
               y="508.27518"
               x="178.7621"
               id="tspan4286"
               sodipodi:role="line">Sieve</tspan></text>
        </g>
        <path
           style="fill:none;stroke:#000000;stroke-width:0.99991804;stroke-linecap:butt;stroke-linejoin:miter;stroke-miterlimit:4;stroke-opacity:1;stroke-dasharray:none;marker-start:none;marker-end:url(#Arrow1Lend)"
           d="m 348.23142,497.81812 0,-60.82784 -297.079996,0 0,30.74528"
           id="path3096"
           inkscape:connector-curvature="0"
           sodipodi:nodetypes="cccc" />
        <path
           id="path2990-5"
           inkscape:label="Triangle"
           style="fill:#ffffff;fill-opacity:1;stroke:#000000;stroke-width:1;stroke-miterlimit:4;stroke-dasharray:none"
           d="m 326.24078,447.47788 0,100.66596 38.2761,-50.33298 -38.2761,-50.33298 z"
           inkscape:connector-curvature="0" />
      </g>
      <text
         xml:space="preserve"
         style="font-size:7.167871px;font-style:normal;font-variant:normal;font-weight:normal;font-stretch:normal;text-align:center;line-height:125%;letter-spacing:0px;word-spacing:0px;writing-mode:lr-tb;text-anchor:middle;fill:#000000;fill-opacity:1;stroke:none;font-family:Sans;-inkscape-font-specification:Sans"
         x="334.16779"
         y="435.08398"
         id="text4307"
         sodipodi:linespacing="125%"><tspan
           sodipodi:role="line"
           id="tspan4309"
           x="334.16779"
           y="435.08398">Flow</tspan><tspan
           sodipodi:role="line"
           x="334.16779"
           y="444.04382"
           id="tspan4311">control</tspan></text>
    </g>
    <flowRoot
       xml:space="preserve"
       id="flowRoot3923"
       style="font-size:20px;font-style:normal;font-variant:normal;font-weight:normal;font-stretch:normal;text-align:start;line-height:125%;letter-spacing:0px;word-spacing:0px;writing-mode:lr-tb;text-anchor:start;fill:#000000;fill-opacity:1;stroke:none;font-family:Sans;-inkscape-font-specification:Sans"
       transform="matrix(2.232183,0,0,2.232183,-392.38939,-586.9167)"><flowRegion
         id="flowRegion3925"><rect
           id="rect3927"
           width="164.14978"
           height="21.213203"
           x="241.42645"
           y="397.78333" /></flowRegion><flowPara
         id="flowPara3929">Thread 1 0T</flowPara></flowRoot>    <text
       xml:space="preserve"
       style="font-size:44.6436615px;font-style:normal;font-variant:normal;font-weight:normal;font-stretch:normal;text-align:start;line-height:125%;letter-spacing:0px;word-spacing:0px;writing-mode:lr-tb;text-anchor:start;fill:#000000;fill-opacity:1;stroke:none;font-family:Sans;-inkscape-font-specification:Sans"
       x="213.03656"
       y="511.83652"
       id="text3947"
       sodipodi:linespacing="125%"><tspan
         sodipodi:role="line"
         id="tspan3949"
         x="213.03656"
         y="511.83652" /></text>
    <g
       id="Layer_3_1_-9-0"
       transform="matrix(2.232183,0,0,2.232183,-350.19098,340.9929)" />
    <g
       id="g4379">
      <g
         transform="matrix(2.232183,0,0,2.232183,-382.38939,-649.77385)"
         id="g3888">
        <path
           sodipodi:nodetypes="cccccc"
           transform="matrix(0.44799194,0,0,0.44799194,19.497741,407.53124)"
           inkscape:connector-curvature="0"
           id="path3902"
           d="m 518.57143,193.68329 128.93636,0 0,152.85714 -492.95445,0 0,-152.85714 109.73237,0"
           style="fill:none;stroke:#000000;stroke-width:2.23200011;stroke-linecap:butt;stroke-linejoin:miter;stroke-miterlimit:4;stroke-opacity:1;stroke-dasharray:none;marker-end:url(#Arrow1Lend)" />
        <path
           id="path2990-1"
           inkscape:label="Triangle"
           style="fill:#ffffff;fill-opacity:1;stroke:#000000;stroke-width:0.99991804;stroke-miterlimit:4;stroke-dasharray:none"
           d="m 141.49984,530.5509 0,64.36873 -24.47485,-32.18437 24.47485,-32.18436 z"
           inkscape:connector-curvature="0" />
        <text
           transform="matrix(0.44799194,0,0,0.44799194,19.497741,407.53124)"
           sodipodi:linespacing="125%"
           id="text4086"
           y="345.11185"
           x="471.42856"
           style="font-size:32px;font-style:normal;font-variant:normal;font-weight:normal;font-stretch:normal;text-align:start;line-height:125%;letter-spacing:0px;word-spacing:0px;writing-mode:lr-tb;text-anchor:start;fill:#000000;fill-opacity:1;stroke:none;font-family:Sans;-inkscape-font-specification:Sans"
           xml:space="preserve"><tspan
             y="345.11185"
             x="471.42856"
             id="tspan4088"
             sodipodi:role="line" /></text>
        <g
           transform="translate(0,0.0206673)"
           id="g4292">
          <rect
             style="fill:#ffffff;fill-opacity:1;stroke:#000000;stroke-width:0.99991804;stroke-linecap:butt;stroke-linejoin:miter;stroke-miterlimit:4;stroke-opacity:1;stroke-dasharray:none;stroke-dashoffset:0"
             id="rect4098"
             width="62.637573"
             height="22.09399"
             x="167.13397"
             y="551.6676"
             ry="5.1420298" />
          <text
             xml:space="preserve"
             style="font-size:14.335742px;font-style:normal;font-variant:normal;font-weight:normal;font-stretch:normal;text-align:start;line-height:125%;letter-spacing:0px;word-spacing:0px;writing-mode:lr-tb;text-anchor:start;fill:#000000;fill-opacity:1;stroke:none;font-family:Sans;-inkscape-font-specification:Sans"
             x="172.24173"
             y="566.66956"
             id="text4288"
             sodipodi:linespacing="125%"><tspan
               sodipodi:role="line"
               id="tspan4290"
               x="172.24173"
               y="566.66956">Update</tspan></text>
        </g>
        <g
           id="g4327">
          <path
             inkscape:connector-curvature="0"
             d="m 255.40564,530.55091 0,64.36871 24.47485,-32.18435 -24.47485,-32.18435 z"
             style="fill:#ffffff;fill-opacity:1;stroke:#000000;stroke-width:0.99991804;stroke-miterlimit:4;stroke-dasharray:none"
             inkscape:label="Triangle"
             id="path2990-5-3" />
          <text
             xml:space="preserve"
             style="font-size:6.2718873px;font-style:normal;font-variant:normal;font-weight:normal;font-stretch:normal;text-align:center;line-height:120.00000477%;letter-spacing:0px;word-spacing:0px;writing-mode:lr-tb;text-anchor:middle;fill:#000000;fill-opacity:1;stroke:none;font-family:Sans;-inkscape-font-specification:Sans"
             x="562.53711"
             y="-260.09601"
             id="text4302"
             sodipodi:linespacing="120%"
             transform="matrix(0,1,-1,0,0,0)"><tspan
               sodipodi:role="line"
               id="tspan4304"
               x="562.53711"
               y="-260.09601">Broadcast</tspan></text>
        </g>
      </g>
      <g
         id="g4332">
        <g
           transform="matrix(1.6151569,0,0,1.6151569,91.009495,471.13946)"
           id="g3806-9-4-0-8">
          <g
             id="Layer_3_1_-9-2-5-8-1" />
          <g
             transform="matrix(1.2972876,0,0,1.2972876,655.30888,-664.70268)"
             style="display:inline"
             id="g3848-7-7-0-9">
            <g
               id="g3844-4-3-1-3">
              <path
                 style="fill:#ffffff;fill-opacity:0.88142293;display:inline"
                 sodipodi:nodetypes="csssssscc"
                 id="path22-7-6-0-4-9-4"
                 d="m -419.78606,559.50504 7.37533,0 c 1.5584,0 2.82613,1.26773 2.82613,2.82613 l 0,14.34774 c 0,1.5584 -1.26786,2.82613 -2.82613,2.82613 l -9.46427,0 c -1.5584,0 -2.82613,-1.26773 -2.82613,-2.82613 l 0,-12.83227 z"
                 inkscape:connector-curvature="0" />
              <path
                 inkscape:connector-curvature="0"
                 id="path22-78-7-8-5-5-1"
                 d="m -419.78606,559.50504 h 7.37533 c 1.5584,0 2.82613,1.26773 2.82613,2.82613 v 14.34774 c 0,1.5584 -1.26786,2.82613 -2.82613,2.82613 h -9.46427 c -1.5584,0 -2.82613,-1.26773 -2.82613,-2.82613 v -12.83227 l 4.91507,-4.3416 z m -4.1076,17.17387 c 0,1.11306 0.9056,2.01866 2.01866,2.01866 h 9.46427 c 1.11307,0 2.01867,-0.9056 2.01867,-2.01866 v -14.34774 c 0,-1.11306 -0.9056,-2.01866 -2.01867,-2.01866 h -6.964 v 3.01 c -0.1296,0.67253 -0.75093,0.86266 -1.2556,0.86266 h -3.23427 l -0.0291,0.0256 v 12.46814 z" />
            </g>
            <text
               xml:space="preserve"
               style="font-size:11.21492004px;font-style:normal;font-variant:normal;font-weight:normal;font-stretch:normal;text-align:center;line-height:125%;letter-spacing:0px;word-spacing:0px;writing-mode:lr-tb;text-anchor:middle;fill:#000000;fill-opacity:1;stroke:none;display:inline;font-family:Sans;-inkscape-font-specification:Sans"
               x="-417.12097"
               y="574.83569"
               id="text2991-8-4-4-3-6"
               sodipodi:linespacing="125%"><tspan
                 sodipodi:role="line"
                 id="tspan3027-1-5-9-7-5"
                 x="-417.12097"
                 y="574.83569">U</tspan></text>
          </g>
        </g>
        <g
           transform="matrix(1.6151569,0,0,1.6151569,-26.472776,471.68769)"
           id="g3806-9-4-0-3">
          <g
             id="Layer_3_1_-9-2-5-8-5" />
          <g
             transform="matrix(1.2972876,0,0,1.2972876,655.30888,-664.70268)"
             style="display:inline"
             id="g3848-7-7-0-4">
            <g
               id="g3844-4-3-1-5">
              <path
                 style="fill:#ffffff;fill-opacity:0.88142293;display:inline"
                 sodipodi:nodetypes="csssssscc"
                 id="path22-7-6-0-4-9-7"
                 d="m -419.78606,559.50504 7.37533,0 c 1.5584,0 2.82613,1.26773 2.82613,2.82613 l 0,14.34774 c 0,1.5584 -1.26786,2.82613 -2.82613,2.82613 l -9.46427,0 c -1.5584,0 -2.82613,-1.26773 -2.82613,-2.82613 l 0,-12.83227 z"
                 inkscape:connector-curvature="0" />
              <path
                 inkscape:connector-curvature="0"
                 id="path22-78-7-8-5-5-9"
                 d="m -419.78606,559.50504 h 7.37533 c 1.5584,0 2.82613,1.26773 2.82613,2.82613 v 14.34774 c 0,1.5584 -1.26786,2.82613 -2.82613,2.82613 h -9.46427 c -1.5584,0 -2.82613,-1.26773 -2.82613,-2.82613 v -12.83227 l 4.91507,-4.3416 z m -4.1076,17.17387 c 0,1.11306 0.9056,2.01866 2.01866,2.01866 h 9.46427 c 1.11307,0 2.01867,-0.9056 2.01867,-2.01866 v -14.34774 c 0,-1.11306 -0.9056,-2.01866 -2.01867,-2.01866 h -6.964 v 3.01 c -0.1296,0.67253 -0.75093,0.86266 -1.2556,0.86266 h -3.23427 l -0.0291,0.0256 v 12.46814 z" />
            </g>
            <text
               xml:space="preserve"
               style="font-size:11.21492004px;font-style:normal;font-variant:normal;font-weight:normal;font-stretch:normal;text-align:center;line-height:125%;letter-spacing:0px;word-spacing:0px;writing-mode:lr-tb;text-anchor:middle;fill:#000000;fill-opacity:1;stroke:none;display:inline;font-family:Sans;-inkscape-font-specification:Sans"
               x="-417.12097"
               y="574.83569"
               id="text2991-8-4-4-3-8"
               sodipodi:linespacing="125%"><tspan
                 sodipodi:role="line"
                 id="tspan3027-1-5-9-7-7"
                 x="-417.12097"
                 y="574.83569">U</tspan></text>
          </g>
        </g>
        <g
           transform="matrix(1.6151569,0,0,1.6151569,-220.03627,471.68769)"
           id="g3806-9-4-0-1">
          <g
             id="Layer_3_1_-9-2-5-8-8" />
          <g
             transform="matrix(1.2972876,0,0,1.2972876,655.30888,-664.70268)"
             style="display:inline"
             id="g3848-7-7-0-8">
            <g
               id="g3844-4-3-1-56">
              <path
                 style="fill:#ffffff;fill-opacity:0.88142293;display:inline"
                 sodipodi:nodetypes="csssssscc"
                 id="path22-7-6-0-4-9-1"
                 d="m -419.78606,559.50504 7.37533,0 c 1.5584,0 2.82613,1.26773 2.82613,2.82613 l 0,14.34774 c 0,1.5584 -1.26786,2.82613 -2.82613,2.82613 l -9.46427,0 c -1.5584,0 -2.82613,-1.26773 -2.82613,-2.82613 l 0,-12.83227 z"
                 inkscape:connector-curvature="0" />
              <path
                 inkscape:connector-curvature="0"
                 id="path22-78-7-8-5-5-0"
                 d="m -419.78606,559.50504 h 7.37533 c 1.5584,0 2.82613,1.26773 2.82613,2.82613 v 14.34774 c 0,1.5584 -1.26786,2.82613 -2.82613,2.82613 h -9.46427 c -1.5584,0 -2.82613,-1.26773 -2.82613,-2.82613 v -12.83227 l 4.91507,-4.3416 z m -4.1076,17.17387 c 0,1.11306 0.9056,2.01866 2.01866,2.01866 h 9.46427 c 1.11307,0 2.01867,-0.9056 2.01867,-2.01866 v -14.34774 c 0,-1.11306 -0.9056,-2.01866 -2.01867,-2.01866 h -6.964 v 3.01 c -0.1296,0.67253 -0.75093,0.86266 -1.2556,0.86266 h -3.23427 l -0.0291,0.0256 v 12.46814 z" />
            </g>
            <text
               xml:space="preserve"
               style="font-size:11.21492004px;font-style:normal;font-variant:normal;font-weight:normal;font-stretch:normal;text-align:center;line-height:125%;letter-spacing:0px;word-spacing:0px;writing-mode:lr-tb;text-anchor:middle;fill:#000000;fill-opacity:1;stroke:none;display:inline;font-family:Sans;-inkscape-font-specification:Sans"
               x="-417.12097"
               y="574.83569"
               id="text2991-8-4-4-3-81"
               sodipodi:linespacing="125%"><tspan
                 sodipodi:role="line"
                 id="tspan3027-1-5-9-7-0"
                 x="-417.12097"
                 y="574.83569">A</tspan></text>
          </g>
        </g>
        <g
           transform="matrix(1.6151569,0,0,1.6151569,-337.13274,471.13946)"
           id="g3806-9-4-0-1-9">
          <g
             id="Layer_3_1_-9-2-5-8-8-0" />
          <g
             transform="matrix(1.2972876,0,0,1.2972876,655.30888,-664.70268)"
             style="display:inline"
             id="g3848-7-7-0-8-6">
            <g
               id="g3844-4-3-1-56-3">
              <path
                 style="fill:#ffffff;fill-opacity:0.88142293;display:inline"
                 sodipodi:nodetypes="csssssscc"
                 id="path22-7-6-0-4-9-1-0"
                 d="m -419.78606,559.50504 7.37533,0 c 1.5584,0 2.82613,1.26773 2.82613,2.82613 l 0,14.34774 c 0,1.5584 -1.26786,2.82613 -2.82613,2.82613 l -9.46427,0 c -1.5584,0 -2.82613,-1.26773 -2.82613,-2.82613 l 0,-12.83227 z"
                 inkscape:connector-curvature="0" />
              <path
                 inkscape:connector-curvature="0"
                 id="path22-78-7-8-5-5-0-6"
                 d="m -419.78606,559.50504 h 7.37533 c 1.5584,0 2.82613,1.26773 2.82613,2.82613 v 14.34774 c 0,1.5584 -1.26786,2.82613 -2.82613,2.82613 h -9.46427 c -1.5584,0 -2.82613,-1.26773 -2.82613,-2.82613 v -12.83227 l 4.91507,-4.3416 z m -4.1076,17.17387 c 0,1.11306 0.9056,2.01866 2.01866,2.01866 h 9.46427 c 1.11307,0 2.01867,-0.9056 2.01867,-2.01866 v -14.34774 c 0,-1.11306 -0.9056,-2.01866 -2.01867,-2.01866 h -6.964 v 3.01 c -0.1296,0.67253 -0.75093,0.86266 -1.2556,0.86266 h -3.23427 l -0.0291,0.0256 v 12.46814 z" />
            </g>
            <text
               xml:space="preserve"
               style="font-size:11.21492004px;font-style:normal;font-variant:normal;font-weight:normal;font-stretch:normal;text-align:center;line-height:125%;letter-spacing:0px;word-spacing:0px;writing-mode:lr-tb;text-anchor:middle;fill:#000000;fill-opacity:1;stroke:none;display:inline;font-family:Sans;-inkscape-font-specification:Sans"
               x="-417.12097"
               y="574.83569"
               id="text2991-8-4-4-3-81-4"
               sodipodi:linespacing="125%"><tspan
                 sodipodi:role="line"
                 id="tspan3027-1-5-9-7-0-9"
                 x="-417.12097"
                 y="574.83569">A</tspan></text>
          </g>
        </g>
      </g>
    </g>
    <g
       id="g4510"
       transform="translate(0,3.0101525)">
      <g
         id="g3806-9-4"
         transform="matrix(1.6151569,0,0,1.6151569,-557.11427,290.52242)">
        <g
           id="Layer_3_1_-9-2-5" />
        <g
           id="g3848-7-7"
           style="display:inline"
           transform="matrix(1.2972876,0,0,1.2972876,655.30888,-664.70268)">
          <g
             id="g3844-4-3">
            <path
               inkscape:connector-curvature="0"
               d="m -419.78606,559.50504 7.37533,0 c 1.5584,0 2.82613,1.26773 2.82613,2.82613 l 0,14.34774 c 0,1.5584 -1.26786,2.82613 -2.82613,2.82613 l -9.46427,0 c -1.5584,0 -2.82613,-1.26773 -2.82613,-2.82613 l 0,-12.83227 z"
               id="path22-7-6-0-4"
               sodipodi:nodetypes="csssssscc"
               style="fill:#ffffff;fill-opacity:0.88142293;display:inline" />
            <path
               d="m -419.78606,559.50504 h 7.37533 c 1.5584,0 2.82613,1.26773 2.82613,2.82613 v 14.34774 c 0,1.5584 -1.26786,2.82613 -2.82613,2.82613 h -9.46427 c -1.5584,0 -2.82613,-1.26773 -2.82613,-2.82613 v -12.83227 l 4.91507,-4.3416 z m -4.1076,17.17387 c 0,1.11306 0.9056,2.01866 2.01866,2.01866 h 9.46427 c 1.11307,0 2.01867,-0.9056 2.01867,-2.01866 v -14.34774 c 0,-1.11306 -0.9056,-2.01866 -2.01867,-2.01866 h -6.964 v 3.01 c -0.1296,0.67253 -0.75093,0.86266 -1.2556,0.86266 h -3.23427 l -0.0291,0.0256 v 12.46814 z"
               id="path22-78-7-8-5"
               inkscape:connector-curvature="0" />
          </g>
          <text
             sodipodi:linespacing="125%"
             id="text2991-8-4-4"
             y="574.83569"
             x="-417.12097"
             style="font-size:11.21492004px;font-style:normal;font-variant:normal;font-weight:normal;font-stretch:normal;text-align:center;line-height:125%;letter-spacing:0px;word-spacing:0px;writing-mode:lr-tb;text-anchor:middle;fill:#000000;fill-opacity:1;stroke:none;display:inline;font-family:Sans;-inkscape-font-specification:Sans"
             xml:space="preserve"><tspan
               y="574.83569"
               x="-417.12097"
               id="tspan3027-1-5-9"
               sodipodi:role="line">C</tspan></text>
        </g>
      </g>
      <g
         id="g3806-9-4-4-8"
         transform="matrix(1.6151569,0,0,1.6151569,295.3544,290.52242)">
        <g
           id="Layer_3_1_-9-2-5-0-8" />
        <g
           id="g3848-7-7-9-9"
           style="display:inline"
           transform="matrix(1.2972876,0,0,1.2972876,655.30888,-664.70268)">
          <g
             id="g3844-4-3-1-6">
            <path
               inkscape:connector-curvature="0"
               d="m -419.78606,559.50504 7.37533,0 c 1.5584,0 2.82613,1.26773 2.82613,2.82613 l 0,14.34774 c 0,1.5584 -1.26786,2.82613 -2.82613,2.82613 l -9.46427,0 c -1.5584,0 -2.82613,-1.26773 -2.82613,-2.82613 l 0,-12.83227 z"
               id="path22-7-6-0-4-7-20"
               sodipodi:nodetypes="csssssscc"
               style="fill:#ffffff;fill-opacity:0.88142293;display:inline" />
            <path
               d="m -419.78606,559.50504 h 7.37533 c 1.5584,0 2.82613,1.26773 2.82613,2.82613 v 14.34774 c 0,1.5584 -1.26786,2.82613 -2.82613,2.82613 h -9.46427 c -1.5584,0 -2.82613,-1.26773 -2.82613,-2.82613 v -12.83227 l 4.91507,-4.3416 z m -4.1076,17.17387 c 0,1.11306 0.9056,2.01866 2.01866,2.01866 h 9.46427 c 1.11307,0 2.01867,-0.9056 2.01867,-2.01866 v -14.34774 c 0,-1.11306 -0.9056,-2.01866 -2.01867,-2.01866 h -6.964 v 3.01 c -0.1296,0.67253 -0.75093,0.86266 -1.2556,0.86266 h -3.23427 l -0.0291,0.0256 v 12.46814 z"
               id="path22-78-7-8-5-7-9"
               inkscape:connector-curvature="0" />
          </g>
          <text
             sodipodi:linespacing="125%"
             id="text2991-8-4-4-5-2"
             y="574.83569"
             x="-417.12097"
             style="font-size:11.21492004px;font-style:normal;font-variant:normal;font-weight:normal;font-stretch:normal;text-align:center;line-height:125%;letter-spacing:0px;word-spacing:0px;writing-mode:lr-tb;text-anchor:middle;fill:#000000;fill-opacity:1;stroke:none;display:inline;font-family:Sans;-inkscape-font-specification:Sans"
             xml:space="preserve"><tspan
               y="574.83569"
               x="-417.12097"
               id="tspan3027-1-5-9-4-0"
               sodipodi:role="line">C</tspan></text>
        </g>
      </g>
      <g
         id="g3806-9-4-0"
         transform="matrix(1.6151569,0,0,1.6151569,-329.29518,290.52242)">
        <g
           id="Layer_3_1_-9-2-5-8" />
        <g
           id="g3848-7-7-0"
           style="display:inline"
           transform="matrix(1.2972876,0,0,1.2972876,655.30888,-664.70268)">
          <g
             id="g3844-4-3-1">
            <path
               inkscape:connector-curvature="0"
               d="m -419.78606,559.50504 7.37533,0 c 1.5584,0 2.82613,1.26773 2.82613,2.82613 l 0,14.34774 c 0,1.5584 -1.26786,2.82613 -2.82613,2.82613 l -9.46427,0 c -1.5584,0 -2.82613,-1.26773 -2.82613,-2.82613 l 0,-12.83227 z"
               id="path22-7-6-0-4-9"
               sodipodi:nodetypes="csssssscc"
               style="fill:#ffffff;fill-opacity:0.88142293;display:inline" />
            <path
               d="m -419.78606,559.50504 h 7.37533 c 1.5584,0 2.82613,1.26773 2.82613,2.82613 v 14.34774 c 0,1.5584 -1.26786,2.82613 -2.82613,2.82613 h -9.46427 c -1.5584,0 -2.82613,-1.26773 -2.82613,-2.82613 v -12.83227 l 4.91507,-4.3416 z m -4.1076,17.17387 c 0,1.11306 0.9056,2.01866 2.01866,2.01866 h 9.46427 c 1.11307,0 2.01867,-0.9056 2.01867,-2.01866 v -14.34774 c 0,-1.11306 -0.9056,-2.01866 -2.01867,-2.01866 h -6.964 v 3.01 c -0.1296,0.67253 -0.75093,0.86266 -1.2556,0.86266 h -3.23427 l -0.0291,0.0256 v 12.46814 z"
               id="path22-78-7-8-5-5"
               inkscape:connector-curvature="0" />
          </g>
          <text
             sodipodi:linespacing="125%"
             id="text2991-8-4-4-3"
             y="574.83569"
             x="-417.12097"
             style="font-size:11.21492004px;font-style:normal;font-variant:normal;font-weight:normal;font-stretch:normal;text-align:center;line-height:125%;letter-spacing:0px;word-spacing:0px;writing-mode:lr-tb;text-anchor:middle;fill:#000000;fill-opacity:1;stroke:none;display:inline;font-family:Sans;-inkscape-font-specification:Sans"
             xml:space="preserve"><tspan
               y="574.83569"
               x="-417.12097"
               id="tspan3027-1-5-9-7"
               sodipodi:role="line">S</tspan></text>
        </g>
      </g>
      <g
         id="g3806-9-4-0-1-2"
         transform="matrix(1.6151569,0,0,1.6151569,80.826749,290.52242)">
        <g
           id="Layer_3_1_-9-2-5-8-8-02" />
        <g
           id="g3848-7-7-0-8-0"
           style="display:inline"
           transform="matrix(1.2972876,0,0,1.2972876,655.30888,-664.70268)">
          <g
             id="g3844-4-3-1-56-7">
            <path
               inkscape:connector-curvature="0"
               d="m -419.78606,559.50504 7.37533,0 c 1.5584,0 2.82613,1.26773 2.82613,2.82613 l 0,14.34774 c 0,1.5584 -1.26786,2.82613 -2.82613,2.82613 l -9.46427,0 c -1.5584,0 -2.82613,-1.26773 -2.82613,-2.82613 l 0,-12.83227 z"
               id="path22-7-6-0-4-9-1-7"
               sodipodi:nodetypes="csssssscc"
               style="fill:#ffffff;fill-opacity:0.88142293;display:inline" />
            <path
               d="m -419.78606,559.50504 h 7.37533 c 1.5584,0 2.82613,1.26773 2.82613,2.82613 v 14.34774 c 0,1.5584 -1.26786,2.82613 -2.82613,2.82613 h -9.46427 c -1.5584,0 -2.82613,-1.26773 -2.82613,-2.82613 v -12.83227 l 4.91507,-4.3416 z m -4.1076,17.17387 c 0,1.11306 0.9056,2.01866 2.01866,2.01866 h 9.46427 c 1.11307,0 2.01867,-0.9056 2.01867,-2.01866 v -14.34774 c 0,-1.11306 -0.9056,-2.01866 -2.01867,-2.01866 h -6.964 v 3.01 c -0.1296,0.67253 -0.75093,0.86266 -1.2556,0.86266 h -3.23427 l -0.0291,0.0256 v 12.46814 z"
               id="path22-78-7-8-5-5-0-5"
               inkscape:connector-curvature="0" />
          </g>
          <text
             sodipodi:linespacing="125%"
             id="text2991-8-4-4-3-81-42"
             y="574.83569"
             x="-417.12097"
             style="font-size:11.21492004px;font-style:normal;font-variant:normal;font-weight:normal;font-stretch:normal;text-align:center;line-height:125%;letter-spacing:0px;word-spacing:0px;writing-mode:lr-tb;text-anchor:middle;fill:#000000;fill-opacity:1;stroke:none;display:inline;font-family:Sans;-inkscape-font-specification:Sans"
             xml:space="preserve"><tspan
               y="574.83569"
               x="-417.12097"
               id="tspan3027-1-5-9-7-0-5"
               sodipodi:role="line">D</tspan></text>
        </g>
      </g>
    </g>
    <g
       id="g4554">
      <rect
         ry="5.3083057"
         rx="2.8400581"
         y="301.51147"
         x="-195.31613"
         height="385.84256"
         width="513.12177"
         id="rect4548"
         style="fill:none;stroke:#000000;stroke-width:2.232;stroke-linecap:butt;stroke-linejoin:miter;stroke-miterlimit:4;stroke-opacity:1;stroke-dasharray:2.232,4.464;stroke-dashoffset:0" />
      <text
         sodipodi:linespacing="125%"
         id="text4550"
         y="335.65607"
         x="60.979126"
         style="font-size:32px;font-style:normal;font-variant:normal;font-weight:normal;font-stretch:normal;text-align:center;line-height:125%;letter-spacing:0px;word-spacing:0px;writing-mode:lr-tb;text-anchor:middle;fill:#000000;fill-opacity:1;stroke:none;font-family:Sans;-inkscape-font-specification:Sans"
         xml:space="preserve"><tspan
           y="335.65607"
           x="60.979126"
           id="tspan4552"
           sodipodi:role="line">Slaves</tspan></text>
    </g>
    <g
       id="g4579">
      <path
         transform="translate(-424.63862,292.92263)"
         inkscape:connector-curvature="0"
         id="path4573"
         d="m 101.01525,-52.03816 0,317.1879 112.12694,0 0,-273.8676979 538.4113,0 0,273.8676979 113.13709,0 0,-317.1879 z"
         style="fill:none;stroke:#000000;stroke-width:2.23200011;stroke-linecap:butt;stroke-linejoin:miter;stroke-miterlimit:4;stroke-opacity:1;stroke-dasharray:2.232, 6.696;stroke-dashoffset:0"
         sodipodi:nodetypes="ccccccccc" />
      <text
         sodipodi:linespacing="125%"
         id="text4575"
         y="273.12814"
         x="1.9721075"
         style="font-size:32px;font-style:normal;font-variant:normal;font-weight:normal;font-stretch:normal;text-align:start;line-height:125%;letter-spacing:0px;word-spacing:0px;writing-mode:lr-tb;text-anchor:start;fill:#000000;fill-opacity:1;stroke:none;font-family:Sans;-inkscape-font-specification:Sans"
         xml:space="preserve"><tspan
           y="273.12814"
           x="1.9721075"
           id="tspan4577"
           sodipodi:role="line">Master</tspan></text>
    </g>
  </g>
</svg>
